<svg xmlns="http://www.w3.org/2000/svg" width="800" height="450" viewBox="0 0 800 450">
  <defs>
    <linearGradient id="bg" x1="0%" y1="0%" x2="100%" y2="100%">
      <stop offset="0%" stop-color="#0f0a1e"/>
      <stop offset="100%" stop-color="#1a0533"/>
    </linearGradient>
    <linearGradient id="passBar" x1="0%" y1="0%" x2="100%" y2="0%">
      <stop offset="0%" stop-color="#22c55e"/>
      <stop offset="100%" stop-color="#4ade80"/>
    </linearGradient>
    <linearGradient id="warnBar" x1="0%" y1="0%" x2="100%" y2="0%">
      <stop offset="0%" stop-color="#f59e0b"/>
      <stop offset="100%" stop-color="#fbbf24"/>
    </linearGradient>
  </defs>

  <rect width="800" height="450" fill="url(#bg)"/>

  <!-- Terminal header -->
  <rect x="30" y="25" width="740" height="380" rx="12" fill="#0d0d1a" stroke="#4c1d95" stroke-width="1.5"/>
  <rect x="30" y="25" width="740" height="38" rx="12" fill="#1a0533"/>
  <rect x="30" y="51" width="740" height="12" fill="#1a0533"/>
  <circle cx="58" cy="44" r="7" fill="#ef4444" opacity="0.9"/>
  <circle cx="80" cy="44" r="7" fill="#f59e0b" opacity="0.9"/>
  <circle cx="102" cy="44" r="7" fill="#22c55e" opacity="0.9"/>
  <text x="400" y="48" text-anchor="middle" font-family="monospace" font-size="11" fill="#a78bfa">jest --coverage --verbose</text>

  <!-- Test output -->
  <text x="55" y="85" font-family="monospace" font-size="11" fill="#6b7280">PASS</text>
  <text x="100" y="85" font-family="monospace" font-size="11" fill="#a78bfa">src/tests/unit/auth.test.js</text>
  <text x="70" y="103" font-family="monospace" font-size="10" fill="#4ade80">  ✓ should login with valid credentials (12ms)</text>
  <text x="70" y="119" font-family="monospace" font-size="10" fill="#4ade80">  ✓ should reject invalid password (8ms)</text>
  <text x="70" y="135" font-family="monospace" font-size="10" fill="#4ade80">  ✓ should generate JWT token (5ms)</text>

  <text x="55" y="155" font-family="monospace" font-size="11" fill="#6b7280">PASS</text>
  <text x="100" y="155" font-family="monospace" font-size="11" fill="#a78bfa">src/tests/integration/api.test.js</text>
  <text x="70" y="173" font-family="monospace" font-size="10" fill="#4ade80">  ✓ GET /api/panels returns 200 (34ms)</text>
  <text x="70" y="189" font-family="monospace" font-size="10" fill="#4ade80">  ✓ POST /api/report creates record (28ms)</text>
  <text x="70" y="205" font-family="monospace" font-size="10" fill="#fbbf24">  ⚠ DELETE /api/panels/:id (slow: 120ms)</text>

  <text x="55" y="225" font-family="monospace" font-size="11" fill="#6b7280">PASS</text>
  <text x="100" y="225" font-family="monospace" font-size="11" fill="#a78bfa">src/tests/e2e/dashboard.test.js</text>
  <text x="70" y="243" font-family="monospace" font-size="10" fill="#4ade80">  ✓ renders dashboard correctly (45ms)</text>
  <text x="70" y="259" font-family="monospace" font-size="10" fill="#4ade80">  ✓ chart displays real-time data (67ms)</text>

  <!-- Coverage table -->
  <rect x="55" y="275" width="690" height="100" rx="8" fill="#1a0533" stroke="#4c1d95" stroke-width="1"/>
  <text x="75" y="295" font-family="monospace" font-size="10" fill="#7c3aed">Coverage Summary</text>

  <!-- Coverage bars -->
  <text x="75" y="315" font-family="monospace" font-size="10" fill="#6b7280">Statements</text>
  <rect x="175" y="305" width="200" height="12" rx="6" fill="#1e1b4b"/>
  <rect x="175" y="305" width="188" height="12" rx="6" fill="url(#passBar)"/>
  <text x="385" y="315" font-family="monospace" font-size="10" fill="#4ade80">94.2%</text>

  <text x="75" y="335" font-family="monospace" font-size="10" fill="#6b7280">Branches  </text>
  <rect x="175" y="325" width="200" height="12" rx="6" fill="#1e1b4b"/>
  <rect x="175" y="325" width="174" height="12" rx="6" fill="url(#passBar)"/>
  <text x="385" y="335" font-family="monospace" font-size="10" fill="#4ade80">87.0%</text>

  <text x="75" y="355" font-family="monospace" font-size="10" fill="#6b7280">Functions  </text>
  <rect x="175" y="345" width="200" height="12" rx="6" fill="#1e1b4b"/>
  <rect x="175" y="345" width="192" height="12" rx="6" fill="url(#passBar)"/>
  <text x="385" y="355" font-family="monospace" font-size="10" fill="#4ade80">96.0%</text>

  <text x="75" y="375" font-family="monospace" font-size="10" fill="#6b7280">Lines     </text>
  <rect x="175" y="365" width="200" height="12" rx="6" fill="#1e1b4b"/>
  <rect x="175" y="365" width="186" height="12" rx="6" fill="url(#passBar)"/>
  <text x="385" y="375" font-family="monospace" font-size="10" fill="#4ade80">93.0%</text>

  <!-- Right side stats -->
  <rect x="460" y="285" width="120" height="80" rx="8" fill="#0d0d1a" stroke="#22c55e" stroke-width="1"/>
  <text x="520" y="310" text-anchor="middle" font-family="monospace" font-size="10" fill="#6b7280">Test Suites</text>
  <text x="520" y="335" text-anchor="middle" font-family="monospace" font-size="24" fill="#4ade80" font-weight="bold">3</text>
  <text x="520" y="355" text-anchor="middle" font-family="monospace" font-size="9" fill="#166534">passed</text>

  <rect x="595" y="285" width="120" height="80" rx="8" fill="#0d0d1a" stroke="#a78bfa" stroke-width="1"/>
  <text x="655" y="310" text-anchor="middle" font-family="monospace" font-size="10" fill="#6b7280">Tests</text>
  <text x="655" y="335" text-anchor="middle" font-family="monospace" font-size="24" fill="#a78bfa" font-weight="bold">12</text>
  <text x="655" y="355" text-anchor="middle" font-family="monospace" font-size="9" fill="#7c3aed">total</text>

  <!-- Summary line -->
  <text x="55" y="400" font-family="monospace" font-size="11" fill="#4ade80">Tests: </text>
  <text x="105" y="400" font-family="monospace" font-size="11" fill="#4ade80" font-weight="bold">12 passed</text>
  <text x="230" y="400" font-family="monospace" font-size="11" fill="#6b7280">Time: </text>
  <text x="275" y="400" font-family="monospace" font-size="11" fill="#a78bfa">2.847s</text>
  <text x="380" y="400" font-family="monospace" font-size="11" fill="#4ade80">✓ All tests passed</text>
</svg>
