<svg xmlns="http://www.w3.org/2000/svg" width="800" height="450" viewBox="0 0 800 450">
  <defs>
    <linearGradient id="bg" x1="0%" y1="0%" x2="100%" y2="100%">
      <stop offset="0%" stop-color="#1c1917"/>
      <stop offset="100%" stop-color="#0c0a09"/>
    </linearGradient>
  </defs>

  <rect width="800" height="450" fill="url(#bg)"/>

  <!-- Top navbar -->
  <rect x="0" y="0" width="800" height="52" fill="#ffe600"/>
  <rect x="20" y="12" width="120" height="28" rx="4" fill="#fff" opacity="0.9"/>
  <text x="80" y="31" text-anchor="middle" font-family="sans-serif" font-size="13" fill="#333" font-weight="bold">MercadoLibre</text>
  <rect x="160" y="12" width="380" height="28" rx="14" fill="#fff" stroke="#ccc" stroke-width="1"/>
  <text x="350" y="30" text-anchor="middle" font-family="sans-serif" font-size="11" fill="#999">Buscar productos, marcas y más...</text>
  <rect x="555" y="12" width="80" height="28" rx="4" fill="#3483fa"/>
  <text x="595" y="30" text-anchor="middle" font-family="sans-serif" font-size="11" fill="white" font-weight="bold">Buscar</text>
  <text x="680" y="30" font-family="sans-serif" font-size="11" fill="#333">🛒 Carrito (3)</text>

  <!-- Category bar -->
  <rect x="0" y="52" width="800" height="30" fill="#fff3b0"/>
  <text x="30" y="71" font-family="sans-serif" font-size="10" fill="#333">Electrónica</text>
  <text x="120" y="71" font-family="sans-serif" font-size="10" fill="#333">Ropa</text>
  <text x="175" y="71" font-family="sans-serif" font-size="10" fill="#333">Hogar</text>
  <text x="225" y="71" font-family="sans-serif" font-size="10" fill="#333">Deportes</text>
  <text x="295" y="71" font-family="sans-serif" font-size="10" fill="#333">Juguetes</text>
  <text x="360" y="71" font-family="sans-serif" font-size="10" fill="#333">Autos</text>
  <text x="410" y="71" font-family="sans-serif" font-size="10" fill="#333">Servicios</text>

  <!-- Product cards -->
  <!-- Card 1 -->
  <rect x="20" y="95" width="170" height="220" rx="8" fill="#1c1917" stroke="#374151" stroke-width="1"/>
  <rect x="20" y="95" width="170" height="110" rx="8" fill="#292524"/>
  <text x="105" y="158" text-anchor="middle" font-size="40">📱</text>
  <rect x="20" y="195" width="170" height="10" rx="0" fill="#1c1917"/>
  <text x="30" y="222" font-family="sans-serif" font-size="10" fill="#d1d5db">iPhone 15 Pro Max</text>
  <text x="30" y="240" font-family="sans-serif" font-size="14" fill="#ffe600" font-weight="bold">$ 4.299.000</text>
  <text x="30" y="256" font-family="sans-serif" font-size="9" fill="#22c55e">Envío gratis</text>
  <rect x="30" y="265" width="50" height="16" rx="8" fill="#ffe600"/>
  <text x="55" y="277" text-anchor="middle" font-family="sans-serif" font-size="9" fill="#333" font-weight="bold">MeliPlus</text>
  <text x="30" y="302" font-family="sans-serif" font-size="9" fill="#f59e0b">★★★★★ (2.4k)</text>

  <!-- Card 2 -->
  <rect x="205" y="95" width="170" height="220" rx="8" fill="#1c1917" stroke="#374151" stroke-width="1"/>
  <rect x="205" y="95" width="170" height="110" rx="8" fill="#292524"/>
  <text x="290" y="158" text-anchor="middle" font-size="40">💻</text>
  <rect x="205" y="195" width="170" height="10" rx="0" fill="#1c1917"/>
  <text x="215" y="222" font-family="sans-serif" font-size="10" fill="#d1d5db">MacBook Air M2</text>
  <text x="215" y="240" font-family="sans-serif" font-size="14" fill="#ffe600" font-weight="bold">$ 6.850.000</text>
  <text x="215" y="256" font-family="sans-serif" font-size="9" fill="#22c55e">Envío gratis</text>
  <rect x="215" y="265" width="50" height="16" rx="8" fill="#ffe600"/>
  <text x="240" y="277" text-anchor="middle" font-family="sans-serif" font-size="9" fill="#333" font-weight="bold">MeliPlus</text>
  <text x="215" y="302" font-family="sans-serif" font-size="9" fill="#f59e0b">★★★★★ (1.8k)</text>

  <!-- Card 3 -->
  <rect x="390" y="95" width="170" height="220" rx="8" fill="#1c1917" stroke="#374151" stroke-width="1"/>
  <rect x="390" y="95" width="170" height="110" rx="8" fill="#292524"/>
  <text x="475" y="158" text-anchor="middle" font-size="40">🎧</text>
  <rect x="390" y="195" width="170" height="10" rx="0" fill="#1c1917"/>
  <text x="400" y="222" font-family="sans-serif" font-size="10" fill="#d1d5db">Sony WH-1000XM5</text>
  <text x="400" y="240" font-family="sans-serif" font-size="14" fill="#ffe600" font-weight="bold">$ 1.199.000</text>
  <text x="400" y="256" font-family="sans-serif" font-size="9" fill="#22c55e">Envío gratis</text>
  <rect x="400" y="265" width="50" height="16" rx="8" fill="#ffe600"/>
  <text x="425" y="277" text-anchor="middle" font-family="sans-serif" font-size="9" fill="#333" font-weight="bold">MeliPlus</text>
  <text x="400" y="302" font-family="sans-serif" font-size="9" fill="#f59e0b">★★★★☆ (987)</text>

  <!-- Card 4 -->
  <rect x="575" y="95" width="170" height="220" rx="8" fill="#1c1917" stroke="#374151" stroke-width="1"/>
  <rect x="575" y="95" width="170" height="110" rx="8" fill="#292524"/>
  <text x="660" y="158" text-anchor="middle" font-size="40">⌚</text>
  <rect x="575" y="195" width="170" height="10" rx="0" fill="#1c1917"/>
  <text x="585" y="222" font-family="sans-serif" font-size="10" fill="#d1d5db">Apple Watch Ultra 2</text>
  <text x="585" y="240" font-family="sans-serif" font-size="14" fill="#ffe600" font-weight="bold">$ 3.450.000</text>
  <text x="585" y="256" font-family="sans-serif" font-size="9" fill="#22c55e">Envío gratis</text>
  <rect x="585" y="265" width="50" height="16" rx="8" fill="#ffe600"/>
  <text x="610" y="277" text-anchor="middle" font-family="sans-serif" font-size="9" fill="#333" font-weight="bold">MeliPlus</text>
  <text x="585" y="302" font-family="sans-serif" font-size="9" fill="#f59e0b">★★★★★ (3.1k)</text>

  <!-- Bottom bar -->
  <rect x="0" y="330" width="800" height="120" fill="#111827" opacity="0.95"/>
  <text x="400" y="365" text-anchor="middle" font-family="sans-serif" font-size="18" fill="#ffe600" font-weight="bold">Mercado Libre Clone</text>
  <text x="400" y="390" text-anchor="middle" font-family="monospace" font-size="11" fill="#6b7280">React  ·  JavaScript  ·  Tailwind CSS  ·  REST API</text>

  <!-- Feature badges -->
  <rect x="130" y="405" width="100" height="22" rx="11" fill="#1e3a5f" stroke="#3b82f6" stroke-width="1"/>
  <text x="180" y="420" text-anchor="middle" font-family="monospace" font-size="9" fill="#60a5fa">🔍 Búsqueda</text>
  <rect x="245" y="405" width="90" height="22" rx="11" fill="#1c1917" stroke="#f59e0b" stroke-width="1"/>
  <text x="290" y="420" text-anchor="middle" font-family="monospace" font-size="9" fill="#fbbf24">🛒 Carrito</text>
  <rect x="350" y="405" width="90" height="22" rx="11" fill="#052e16" stroke="#22c55e" stroke-width="1"/>
  <text x="395" y="420" text-anchor="middle" font-family="monospace" font-size="9" fill="#4ade80">⚡ Filtros</text>
  <rect x="455" y="405" width="100" height="22" rx="11" fill="#2e1065" stroke="#8b5cf6" stroke-width="1"/>
  <text x="505" y="420" text-anchor="middle" font-family="monospace" font-size="9" fill="#a78bfa">💳 Pagos</text>
  <rect x="570" y="405" width="100" height="22" rx="11" fill="#1e3a5f" stroke="#06b6d4" stroke-width="1"/>
  <text x="620" y="420" text-anchor="middle" font-family="monospace" font-size="9" fill="#22d3ee">📱 Responsive</text>
</svg>
